<svg width="20" height="20" viewBox="0 0 20 20" fill="none" xmlns="http://www.w3.org/2000/svg">
<path fill-rule="evenodd" clip-rule="evenodd" d="M20 2.77033C20 2.704 19.9827 2.643 19.9563 2.58667C19.9473 2.517 19.919 2.44933 19.8717 2.39367L17.82 0H2.18L0.128 2.394C0.0806667 2.44933 0.0523333 2.51667 0.0436667 2.58667C0.0173333 2.643 0 2.704 0 2.77033V6.33333H1V20H19V6.33333H20V2.77033ZM2.48667 0.666667H17.5133L18.942 2.33333H1.058L2.48667 0.666667ZM18.3333 19.3333H1.66667V6.33333H18.3333V19.3333ZM19.3333 5.66667H19H1H0.666667V3H19.3333V5.66667ZM14 7.66666H5.99997V11H14V7.66666ZM13.3333 10.3333H6.66664V8.33333H13.3333V10.3333ZM3 12H17V18H3V12ZM3.93333 17.1429H16.0667V12.8571H3.93333V17.1429Z" fill="black"/>
</svg>
