<svg width="17" height="25" viewBox="0 0 17 25" fill="none" xmlns="http://www.w3.org/2000/svg">
<path fill-rule="evenodd" clip-rule="evenodd" d="M0 8.33333C0 3.73842 3.73842 0 8.33333 0C12.9282 0 16.6667 3.73842 16.6667 8.33329C16.6667 9.71268 16.3218 11.0804 15.6687 12.2894L8.78905 24.7314C8.69749 24.8972 8.52303 25 8.33333 25C8.14364 25 7.96917 24.8972 7.87762 24.7314L1.00049 12.2935C0.344872 11.0804 0 9.71273 0 8.33333ZM8.33333 23.4029L14.7547 11.7894C15.3234 10.7371 15.625 9.54027 15.625 8.33333C15.625 4.31269 12.354 1.0417 8.33333 1.0417C4.31269 1.0417 1.0417 4.31264 1.0417 8.33333C1.0417 9.54031 1.34331 10.7371 1.9145 11.794L8.33333 23.4029ZM4.16669 8.33333C4.16669 6.03587 6.03587 4.16669 8.33333 4.16669C10.6308 4.16669 12.5 6.03592 12.5 8.33338C12.5 10.6308 10.6308 12.5 8.33333 12.5C6.03587 12.5 4.16669 10.6308 4.16669 8.33333ZM5.20833 8.33338C5.20833 10.0566 6.61009 11.4584 8.33333 11.4584C10.0566 11.4584 11.4583 10.0566 11.4583 8.33338C11.4583 6.61014 10.0566 5.20838 8.33333 5.20838C6.61009 5.20838 5.20833 6.61014 5.20833 8.33338Z" fill="#212121"/>
</svg>
